<?xml version="1.0" standalone="no"?>
<!DOCTYPE svg PUBLIC "-//W3C//DTD SVG 20010904//EN"
 "http://www.w3.org/TR/2001/REC-SVG-20010904/DTD/svg10.dtd">
<svg version="1.0" xmlns="http://www.w3.org/2000/svg"
 width="1024.000000pt" height="1024.000000pt" viewBox="0 0 1024.000000 1024.000000"
 preserveAspectRatio="xMidYMid meet">

<g transform="translate(0.000000,1024.000000) scale(0.100000,-0.100000)"
fill="#000000" stroke="none">
<path d="M4685 8745 c-33 -7 -128 -27 -211 -44 -293 -58 -449 -103 -566 -162
-236 -118 -394 -391 -374 -644 10 -125 32 -201 96 -330 99 -201 190 -299 405
-435 106 -67 153 -130 191 -259 14 -47 33 -111 42 -141 l17 -55 95 -47 c114
-57 315 -127 386 -135 51 -5 51 -5 89 41 21 26 56 56 77 67 21 11 38 24 38 29
0 5 -17 21 -39 34 -58 37 -81 72 -81 122 0 76 59 121 264 199 192 73 255 178
191 317 -13 29 -29 78 -35 108 -6 30 -15 81 -22 113 -11 57 -10 58 26 116 20
32 36 64 36 71 0 25 -34 73 -120 172 -86 98 -90 105 -85 139 10 58 -10 109
-89 229 l-75 112 0 101 c0 75 -5 119 -20 168 -23 73 -41 94 -98 115 -45 16
-59 16 -138 -1z m155 -366 c31 -57 82 -141 113 -187 58 -84 65 -109 47 -158
-14 -36 14 -81 124 -203 47 -52 86 -102 86 -111 0 -19 -26 -45 -95 -90 -53
-36 -76 -60 -69 -72 3 -4 17 -3 31 3 36 14 51 5 69 -37 19 -45 13 -53 -71 -84
-68 -26 -110 -54 -100 -70 6 -9 33 -1 133 39 30 12 58 19 63 16 5 -4 9 -22 9
-42 0 -22 12 -58 31 -91 39 -70 37 -108 -10 -139 -76 -51 -215 -68 -302 -38
-102 36 -145 102 -183 284 -15 67 -32 121 -43 133 -30 33 -169 114 -229 133
l-56 18 6 71 c16 193 17 262 7 289 -11 28 -15 31 -64 42 -16 3 -27 10 -25 16
2 5 40 25 85 43 177 73 274 153 333 274 18 40 38 71 44 69 5 -2 35 -50 66
-108z"/>
<path d="M4758 7961 c-42 -15 -99 -44 -126 -65 -48 -37 -98 -107 -85 -120 14
-13 57 -5 119 24 58 27 125 49 194 64 23 5 25 9 25 63 -1 54 -3 58 -25 60 -14
1 -59 -10 -102 -26z"/>
<path d="M8140 8539 c-171 -66 -283 -106 -500 -179 -113 -38 -261 -90 -330
-114 -69 -25 -183 -66 -255 -91 -340 -121 -526 -175 -730 -210 -217 -37 -422
-123 -516 -217 -49 -49 -116 -143 -153 -216 -24 -47 -62 -202 -75 -312 -7 -52
-13 -105 -15 -117 -3 -20 3 -22 78 -28 232 -18 403 -52 651 -128 129 -40 181
-43 250 -12 57 25 174 48 305 60 156 15 414 57 477 79 38 13 109 42 158 66 80
37 103 55 201 154 61 61 128 138 149 170 46 71 115 239 115 277 l0 28 -86 -29
c-47 -16 -126 -48 -175 -71 -49 -22 -165 -67 -257 -100 -92 -32 -205 -74 -252
-93 -47 -19 -137 -50 -200 -70 -63 -19 -173 -53 -245 -76 -265 -85 -470 -125
-520 -102 -28 13 -34 47 -9 56 8 3 12 10 9 16 -3 5 0 7 8 4 8 -3 21 1 28 8 8
7 29 14 48 16 18 2 92 24 165 49 72 25 183 62 246 83 63 21 167 57 230 80 63
23 138 48 165 57 103 32 155 55 149 65 -4 7 -2 8 5 4 6 -4 38 3 71 16 50 19
59 26 54 43 -5 19 -4 19 9 3 16 -20 32 -25 21 -6 -4 7 -3 8 5 4 26 -17 440
150 433 175 -1 6 2 8 7 5 14 -9 61 15 54 27 -3 6 -1 7 5 3 6 -4 22 -1 34 5 39
21 148 131 188 189 62 91 115 252 121 365 4 61 0 105 -8 105 -5 0 -55 -19
-113 -41z m19 -89 c7 0 10 -4 7 -9 -4 -5 0 -11 6 -14 10 -3 8 -10 -6 -25 -14
-16 -23 -19 -37 -12 -12 7 -20 7 -24 0 -3 -5 3 -10 14 -10 12 0 21 -5 21 -11
0 -8 4 -8 14 0 20 17 16 -20 -4 -37 -8 -8 -9 -11 -2 -7 14 7 17 -21 2 -30 -6
-4 -8 -10 -5 -15 10 -16 -52 -7 -75 10 -20 15 -21 18 -6 32 12 12 13 18 3 25
-19 14 -72 -1 -61 -18 3 -5 14 -4 25 2 12 6 23 8 27 5 3 -3 0 -6 -7 -6 -7 0
-10 -4 -6 -10 3 -5 -10 -8 -32 -6 -21 2 -44 -1 -50 -7 -9 -6 -18 -5 -28 3 -8
7 -15 8 -15 2 0 -14 28 -35 39 -28 5 3 12 0 15 -6 3 -7 3 -2 0 11 -7 26 -5 26
60 -21 39 -28 62 -36 51 -18 -3 6 -2 10 3 10 14 0 21 -11 15 -26 -4 -11 -12
-10 -44 6 -21 11 -39 16 -39 10 0 -5 5 -10 11 -10 6 0 24 -11 41 -25 16 -14
27 -25 23 -25 -3 0 -3 -5 1 -12 5 -7 10 -3 16 12 5 12 11 20 14 17 3 -3 -7
-29 -22 -59 -16 -29 -28 -55 -29 -58 0 -3 -10 -16 -23 -30 -12 -13 -20 -30
-18 -37 3 -7 -1 -10 -10 -6 -7 3 -14 0 -14 -7 0 -6 -4 -8 -10 -5 -5 3 -10 14
-10 24 0 10 -7 24 -15 31 -12 10 -15 9 -15 -4 0 -11 5 -15 13 -10 7 4 9 3 4
-2 -5 -5 -13 -10 -18 -10 -5 -1 -13 -2 -19 -3 -5 0 -10 -5 -10 -10 0 -4 12 -7
26 -5 26 2 49 -26 26 -34 -7 -2 -10 -8 -7 -12 3 -5 1 -12 -5 -15 -6 -4 -10 -3
-9 2 4 20 -2 34 -11 28 -6 -4 -8 -16 -4 -28 6 -20 5 -20 -10 -8 -9 8 -20 11
-23 7 -4 -4 -1 -11 7 -17 11 -7 7 -8 -14 -5 -22 4 -26 2 -18 -6 7 -7 12 -17
12 -22 0 -6 -5 -4 -10 4 -8 13 -10 13 -10 -2 0 -11 -6 -15 -20 -11 -12 3 -20
0 -20 -8 0 -7 -3 -9 -7 -6 -3 4 3 17 14 30 28 31 36 57 18 57 -8 0 -15 4 -15
8 0 5 -7 9 -15 9 -13 0 -13 -3 2 -19 9 -10 12 -18 7 -18 -5 0 -3 -4 5 -9 8 -5
9 -11 3 -15 -5 -3 -15 1 -22 9 -9 10 -9 15 -1 15 6 0 2 9 -9 20 -26 26 -26 43
1 35 15 -5 19 -4 15 4 -4 6 -14 11 -22 11 -8 0 -14 7 -14 15 0 8 -4 15 -10 15
-14 0 -13 -13 2 -28 9 -9 8 -12 -4 -12 -9 0 -18 9 -21 21 -4 15 1 22 19 29 27
11 31 28 9 36 -20 8 -19 24 1 24 12 0 9 6 -10 21 -31 24 -50 17 -20 -7 16 -13
17 -15 2 -10 -12 3 -18 0 -18 -9 0 -8 -7 -15 -16 -15 -8 0 -13 4 -10 8 3 5 -1
9 -9 9 -7 0 -13 -8 -12 -18 1 -10 5 -15 9 -13 5 3 18 2 29 -1 15 -5 19 -13 15
-28 -6 -25 9 -55 40 -80 14 -11 21 -24 17 -33 -5 -14 -7 -14 -16 2 -16 32 -57
57 -57 36 0 -5 11 -15 25 -22 13 -7 23 -17 22 -23 -1 -6 8 -13 20 -16 16 -4
20 -10 14 -20 -6 -9 -11 -10 -15 -2 -4 6 -12 9 -17 6 -5 -4 -9 1 -9 9 0 17
-30 50 -38 42 -2 -3 1 -14 9 -23 12 -16 12 -17 -2 -6 -9 7 -19 10 -23 6 -4 -4
3 -12 15 -19 l22 -11 -22 -13 c-30 -16 -47 0 -32 28 6 11 8 29 5 39 -4 13 -3
15 4 4 6 -9 12 -10 16 -3 7 12 -32 37 -42 28 -3 -3 0 -6 7 -6 9 0 9 -5 0 -21
-6 -12 -7 -19 -1 -15 6 4 8 -2 5 -14 -3 -11 -10 -23 -15 -26 -5 -3 -1 -15 9
-26 18 -20 18 -21 -4 -9 -23 12 -38 44 -28 61 3 5 1 10 -5 10 -6 0 -9 4 -6 9
3 4 -4 17 -17 27 -12 10 -16 12 -9 4 17 -20 15 -32 -5 -22 -62 31 -90 48 -101
61 -8 9 -11 10 -7 4 3 -7 1 -13 -5 -13 -11 0 -29 13 -87 60 -7 5 -14 6 -17 1
-3 -4 6 -13 19 -19 14 -7 25 -17 25 -23 0 -8 -4 -8 -15 1 -13 11 -14 10 -9 -5
6 -14 4 -16 -6 -10 -9 5 -11 4 -6 -3 5 -9 13 -9 27 -2 21 12 43 4 33 -11 -3
-5 -11 -6 -17 -2 -7 4 -6 0 2 -10 10 -13 11 -20 2 -31 -8 -9 -8 -21 -2 -37 7
-18 10 -19 10 -6 1 9 6 17 12 17 5 0 8 -4 5 -9 -3 -5 15 -27 41 -50 26 -22 42
-41 37 -41 -6 0 -23 14 -39 30 -16 17 -35 28 -42 26 -7 -3 -15 -1 -18 5 -4 5
-11 7 -16 4 -5 -4 -6 2 -2 12 6 15 4 16 -9 5 -12 -10 -18 -10 -23 -1 -4 6 -1
15 6 20 11 7 10 12 -6 28 -19 19 -22 20 -50 5 -27 -14 -31 -13 -54 4 -38 28
-40 47 -2 27 18 -9 29 -20 26 -25 -10 -16 11 -11 25 5 10 11 9 17 -3 29 -8 8
-18 12 -22 8 -5 -4 -6 0 -3 8 3 8 -3 24 -13 34 -23 23 -24 18 -4 -20 24 -47 6
-42 -46 14 -27 28 -53 52 -59 52 -6 0 8 -18 32 -40 41 -39 42 -41 24 -55 -19
-14 -18 -15 5 -24 13 -5 20 -10 14 -11 -5 0 1 -8 15 -16 15 -9 17 -13 6 -10
-10 4 -25 1 -32 -5 -15 -12 -34 -4 -33 14 0 9 2 9 5 0 3 -7 12 -9 20 -6 12 4
8 13 -18 41 -18 19 -28 32 -23 29 6 -3 17 -2 24 2 9 6 7 10 -8 14 -12 3 -21 1
-21 -4 0 -5 -5 -9 -11 -9 -6 0 -9 6 -6 14 3 8 -1 13 -11 12 -9 0 -21 9 -27 22
-5 12 -13 22 -18 22 -4 0 -3 -9 3 -21 9 -17 8 -23 -7 -34 -17 -13 -17 -14 0
-20 9 -4 23 -5 31 -2 8 3 25 -3 38 -15 21 -18 21 -20 3 -16 -12 2 -19 -2 -18
-9 3 -15 -13 -17 -21 -4 -3 5 1 12 10 15 8 3 12 11 8 17 -5 8 -8 8 -13 0 -14
-23 -56 -19 -85 8 -21 19 -27 21 -23 9 8 -22 8 -22 -36 -3 -32 13 -36 13 -31
0 4 -8 9 -13 14 -10 11 7 65 -58 62 -74 -2 -7 1 -10 7 -6 6 3 11 3 12 -2 0 -4
2 -21 4 -38 1 -16 1 -25 -2 -18 -2 7 -12 9 -21 6 -14 -4 -14 -3 -3 5 12 9 12
14 -3 36 -9 14 -21 26 -26 26 -5 0 -7 6 -4 13 6 16 -23 43 -33 33 -4 -4 -3
-10 2 -14 6 -4 15 -16 21 -27 10 -18 9 -21 -8 -22 -13 -1 -18 3 -14 12 6 16
-35 17 -45 2 -10 -14 -57 1 -77 23 -9 11 -20 20 -25 20 -5 0 -4 -6 2 -14 8 -9
8 -16 2 -20 -5 -4 -15 2 -21 11 -10 17 -10 16 -8 -2 2 -12 -2 -19 -10 -17 -8
1 -11 -2 -7 -8 4 -6 13 -9 21 -6 7 3 16 1 19 -4 3 -5 -10 -7 -29 -4 -30 3 -34
2 -29 -16 3 -11 0 -20 -6 -20 -6 0 -11 6 -11 13 0 7 -7 22 -16 33 -8 10 -13
13 -9 7 3 -7 1 -13 -5 -13 -8 0 -8 -4 0 -12 6 -7 16 -21 23 -31 11 -16 15 -17
40 -4 15 8 25 16 22 19 -3 2 3 5 12 5 10 0 24 -6 31 -14 11 -11 9 -13 -14 -13
-15 0 -38 -10 -51 -22 -14 -13 -23 -17 -23 -9 0 7 -6 11 -14 8 -10 -4 -13 -1
-9 8 3 8 -2 18 -11 21 -9 3 -13 10 -10 15 3 5 0 9 -5 9 -6 0 -11 10 -12 23 0
21 -1 21 -8 2 -5 -11 -4 -21 0 -23 5 -2 9 -10 9 -18 0 -8 5 -14 10 -14 6 0 10
-5 10 -10 0 -6 -8 -5 -19 2 -11 7 -17 16 -15 20 3 4 -7 8 -23 7 -23 0 -25 -2
-9 -8 17 -6 17 -8 3 -14 -16 -6 -42 15 -30 26 3 4 -9 6 -28 6 -19 -1 -26 -3
-17 -6 20 -5 21 -50 1 -50 -6 0 -10 4 -8 8 3 3 -4 9 -15 12 -11 3 -18 1 -14
-4 3 -5 0 -9 -5 -10 -42 -3 -69 -1 -82 6 -12 7 -12 6 1 -11 8 -10 22 -25 30
-32 8 -8 9 -11 3 -7 -9 4 -13 -1 -13 -15 0 -13 4 -19 12 -14 6 4 8 3 4 -4 -4
-7 -17 -8 -38 -1 -35 10 -61 29 -39 29 7 0 19 7 27 15 9 8 12 15 7 15 -5 0
-14 -5 -20 -11 -6 -6 -17 -12 -24 -13 -8 -2 -22 -6 -32 -11 -10 -4 -21 -5 -24
-2 -3 4 -14 2 -24 -3 -10 -6 -20 -6 -23 -1 -3 5 -15 7 -26 4 -11 -3 -17 -9
-14 -14 3 -5 1 -9 -4 -9 -5 0 -15 11 -22 25 -7 14 -17 25 -22 25 -4 0 -8 5 -8
10 0 6 7 10 15 10 8 0 15 -6 15 -14 0 -7 9 -16 19 -19 14 -3 18 -1 14 9 -3 8
-9 11 -14 8 -5 -3 -9 -1 -9 3 0 10 65 37 95 40 11 1 43 8 72 16 38 11 53 12
57 3 2 -6 5 -2 5 8 1 11 4 16 7 13 4 -3 15 -2 26 4 11 6 32 13 46 15 25 4 46
11 97 30 11 4 28 9 38 10 10 2 34 12 55 23 25 12 45 16 64 11 18 -6 25 -4 22
4 -2 6 21 20 56 32 38 13 60 17 61 10 0 -7 3 -6 6 1 3 10 8 9 20 -3 8 -8 18
-12 21 -9 4 3 0 10 -8 15 -16 10 -15 12 21 27 35 15 69 6 69 -18 0 -11 5 -19
10 -19 16 0 12 18 -10 40 -11 11 -15 21 -10 21 19 3 25 5 47 17 12 7 26 11 30
10 4 -1 17 3 28 9 19 10 419 144 440 147 6 0 12 3 15 6 9 10 85 39 130 50 55
13 90 26 155 56 28 12 76 31 107 41 36 11 58 24 58 33 1 12 3 12 14 -2 7 -10
19 -18 25 -18z m-94 -170 c23 -26 8 -26 -25 0 -18 14 -21 20 -9 20 9 0 24 -9
34 -20z m80 -38 c-3 -3 -11 0 -18 7 -9 10 -8 11 6 5 10 -3 15 -9 12 -12z
m-355 -164 c0 -5 -9 -4 -20 2 -11 6 -18 15 -14 21 6 11 34 -7 34 -23z m-610
-48 c0 -5 -4 -10 -10 -10 -5 0 -10 5 -10 10 0 6 5 10 10 10 6 0 10 -4 10 -10z
m170 -40 c0 -5 -2 -10 -4 -10 -3 0 -8 5 -11 10 -3 6 -1 10 4 10 6 0 11 -4 11
-10z m202 -15 c21 -18 37 -24 51 -19 17 5 19 3 12 -12 -4 -11 -8 -25 -8 -32 0
-15 -22 3 -22 19 0 5 -3 8 -7 7 -4 -2 -13 6 -21 16 -13 18 -15 18 -24 2 -9
-16 -11 -16 -23 -1 -11 13 -10 15 4 9 9 -3 16 -1 16 5 0 6 -4 11 -10 11 -5 0
-10 5 -10 10 0 16 10 12 42 -15z m-449 1 c9 -7 17 -18 17 -24 0 -6 6 -13 13
-15 6 -3 8 -6 2 -6 -13 -1 -25 8 -49 37 -21 24 -11 29 17 8z m66 -41 c-7 -7
-13 -5 -19 5 -15 24 -11 31 10 18 13 -9 16 -16 9 -23z m218 10 c0 -8 -4 -12
-8 -9 -4 2 -12 -3 -17 -11 -8 -15 -10 -15 -21 -1 -12 14 -10 16 7 16 12 0 24
5 27 10 9 14 12 13 12 -5z m-138 -35 c22 -22 37 -40 33 -40 -9 1 -41 29 -66
58 -31 36 -11 25 33 -18z m-339 -9 c0 -11 -4 -9 -14 4 -8 11 -12 24 -9 28 7
11 23 -12 23 -32z m659 20 c10 -10 21 -25 23 -32 4 -11 10 -9 26 7 16 17 18
24 9 34 -9 10 -9 12 2 8 22 -6 24 -24 5 -42 -20 -20 -11 -34 11 -16 8 7 15 9
15 4 -1 -34 -68 -55 -91 -28 -13 16 -12 16 9 5 35 -19 38 -6 7 23 -20 19 -34
24 -51 20 -17 -5 -24 -2 -24 9 0 14 13 24 33 26 4 1 15 -7 26 -18z m-582 -12
c-9 -6 -15 -15 -11 -20 3 -6 -3 -5 -15 3 -12 7 -21 17 -21 22 0 4 6 3 14 -3
10 -9 16 -8 26 4 7 9 16 13 19 9 3 -3 -2 -10 -12 -15z m207 3 c3 -5 -1 -9 -9
-9 -8 0 -12 4 -9 9 3 4 7 8 9 8 2 0 6 -4 9 -8z m93 2 c-3 -3 -12 -4 -19 -1 -8
3 -5 6 6 6 11 1 17 -2 13 -5z m53 -4 c0 -5 -2 -10 -4 -10 -3 0 -8 5 -11 10 -3
6 -1 10 4 10 6 0 11 -4 11 -10z m220 -14 c0 -3 -4 -8 -10 -11 -5 -3 -10 -1
-10 4 0 6 5 11 10 11 6 0 10 -2 10 -4z m248 -9 c17 -11 15 -24 -4 -31 -12 -5
-15 -2 -10 9 5 14 1 13 -24 -2 -17 -9 -30 -20 -30 -24 0 -4 -7 -10 -16 -13
-13 -5 -14 -4 -6 7 7 8 9 17 5 20 -3 4 2 7 12 7 10 0 15 3 12 7 -4 3 -2 12 4
19 11 14 35 14 57 1z m-553 -19 c5 4 5 2 1 -5 -8 -14 -36 -6 -36 9 0 7 5 6 13
-1 8 -6 18 -7 22 -3z m80 2 c3 -5 2 -10 -4 -10 -5 0 -13 5 -16 10 -3 6 -2 10
4 10 5 0 13 -4 16 -10z m132 -20 c-2 -23 -10 -17 -14 11 -2 11 1 18 6 14 6 -3
9 -14 8 -25z m-597 -17 c0 -13 -3 -13 -15 -3 -8 7 -15 16 -15 21 0 5 7 6 15 3
8 -4 15 -13 15 -21z m105 17 c3 -5 1 -10 -4 -10 -6 0 -11 5 -11 10 0 6 2 10 4
10 3 0 8 -4 11 -10z m249 -7 c24 -4 32 -11 23 -19 -4 -4 -13 -2 -20 4 -8 7
-16 10 -19 7 -3 -3 -11 2 -19 12 -12 15 -12 16 1 8 8 -5 24 -11 34 -12z m86 7
c0 -5 -4 -10 -10 -10 -5 0 -10 5 -10 10 0 6 5 10 10 10 6 0 10 -4 10 -10z
m386 -12 c2 -16 -19 -19 -33 -4 -4 4 -3 7 2 6 22 -5 29 1 15 11 -12 8 -12 10
-1 7 8 -2 15 -11 17 -20z m-966 2 c0 -5 -7 -7 -15 -4 -8 4 -15 8 -15 10 0 2 7
4 15 4 8 0 15 -4 15 -10z m547 -12 c2 -17 0 -19 -7 -8 -5 8 -6 18 -4 22 8 12
10 10 11 -14z m-1019 -24 c10 -9 9 -14 -5 -25 -10 -7 -15 -10 -11 -5 4 5 0 23
-8 40 -11 22 -11 27 -2 16 8 -8 20 -20 26 -26z m289 30 c-3 -3 -12 -4 -19 -1
-8 3 -5 6 6 6 11 1 17 -2 13 -5z m794 -1 c-11 -4 -8 -10 10 -25 13 -10 20 -18
14 -17 -22 3 -27 -2 -15 -16 18 -22 7 -18 -21 7 -17 14 -19 19 -6 15 18 -7 24
8 7 18 -13 8 -3 25 13 24 7 0 6 -3 -2 -6z m207 -21 c9 -14 10 -22 3 -22 -6 0
-11 5 -11 11 0 5 -5 7 -12 3 -7 -5 -8 -3 -3 6 4 7 2 16 -6 22 -12 8 -12 9 0 6
8 -2 21 -14 29 -26z m92 18 c0 -5 -2 -10 -4 -10 -3 0 -8 5 -11 10 -3 6 -1 10
4 10 6 0 11 -4 11 -10z m-706 -8 c2 -4 -4 -8 -14 -8 -10 0 -16 4 -14 8 3 4 9
8 14 8 5 0 11 -4 14 -8z m261 -2 c3 -5 1 -10 -4 -10 -6 0 -11 5 -11 10 0 6 2
10 4 10 3 0 8 -4 11 -10z m77 -34 c4 -6 2 -14 -5 -18 -8 -5 -6 -8 7 -8 13 0
17 -5 13 -20 -5 -21 23 -46 38 -32 5 4 5 1 1 -5 -4 -7 -12 -13 -18 -13 -6 0
-17 -8 -25 -17 -10 -13 -16 -15 -19 -5 -3 6 -9 10 -13 7 -5 -2 -16 1 -26 9
-17 12 -17 13 1 13 11 0 24 -4 31 -9 13 -11 33 -3 33 13 0 6 -4 8 -9 5 -4 -3
-19 6 -31 19 -13 14 -19 25 -14 25 5 0 0 7 -10 15 -17 13 -18 15 -3 15 9 0 17
-5 17 -12 0 -9 3 -9 11 -1 13 13 3 36 -12 28 -5 -4 -9 -1 -9 6 0 8 -5 7 -17
-2 -16 -13 -17 -12 -4 3 11 14 17 15 35 6 11 -6 24 -16 28 -22z m318 19 c0
-12 -19 -12 -23 0 -4 9 -1 12 9 8 7 -3 14 -7 14 -8z m-1403 -17 c-3 -8 -6 -5
-6 6 -1 11 2 17 5 13 3 -3 4 -12 1 -19z m1258 4 c-3 -3 -11 0 -18 7 -9 10 -8
11 6 5 10 -3 15 -9 12 -12z m-1220 -2 c3 -5 1 -10 -4 -10 -6 0 -11 5 -11 10 0
6 2 10 4 10 3 0 8 -4 11 -10z m1205 -22 c0 -7 4 -7 14 1 10 8 16 9 21 1 4 -6
1 -9 -6 -8 -7 2 -14 -3 -15 -9 -1 -7 -2 -18 -3 -23 -1 -7 -7 -7 -20 -1 -10 6
-20 8 -23 6 -3 -3 -5 2 -5 10 0 8 4 15 9 15 4 0 8 -4 8 -10 0 -5 8 -10 18 -9
10 0 12 3 5 6 -7 2 -13 9 -13 15 0 6 -8 17 -17 25 -16 13 -16 13 5 3 12 -6 22
-16 22 -22z m200 22 c0 -5 -2 -10 -4 -10 -3 0 -8 5 -11 10 -3 6 -1 10 4 10 6
0 11 -4 11 -10z m-1230 -31 c0 -6 -4 -7 -10 -4 -5 3 -10 11 -10 16 0 6 5 7 10
4 6 -3 10 -11 10 -16z m59 7 c9 -11 6 -12 -14 -8 -14 2 -22 8 -19 13 8 13 20
11 33 -5z m251 -6 c-8 -5 -17 -7 -19 -4 -3 3 1 9 9 14 8 5 17 7 19 4 3 -3 -1
-9 -9 -14z m315 2 c-3 -3 -11 0 -18 7 -9 10 -8 11 6 5 10 -3 15 -9 12 -12z
m291 3 c4 -8 9 -13 13 -11 3 2 17 -2 31 -10 14 -7 20 -13 13 -14 -7 0 -10 -7
-7 -15 4 -8 1 -15 -6 -15 -6 0 -9 -4 -6 -8 3 -5 -1 -9 -9 -9 -10 0 -12 4 -5
12 6 7 7 22 3 33 -8 20 -11 22 -34 22 -5 0 -8 4 -5 9 4 5 0 12 -6 14 -10 4
-10 6 0 6 7 1 15 -6 18 -14z m234 11 c0 -2 -7 -6 -15 -10 -8 -3 -15 -1 -15 4
0 6 7 10 15 10 8 0 15 -2 15 -4z m-1320 -16 c0 -5 -2 -10 -4 -10 -3 0 -8 5
-11 10 -3 6 -1 10 4 10 6 0 11 -4 11 -10z m115 -18 c-3 -3 -11 0 -18 7 -9 10
-8 11 6 5 10 -3 15 -9 12 -12z m35 -3 c0 -6 -4 -7 -10 -4 -5 3 -10 11 -10 16
0 6 5 7 10 4 6 -3 10 -11 10 -16z m563 1 c3 -11 1 -18 -4 -14 -5 3 -9 12 -9
20 0 20 7 17 13 -6z m212 -8 c-3 -8 0 -22 7 -31 12 -14 11 -15 -5 -2 -10 8
-16 20 -13 26 2 7 -1 18 -7 24 -9 9 -8 11 6 5 11 -4 16 -13 12 -22z m50 -11
c3 -5 1 -12 -5 -16 -16 -10 -12 -23 10 -30 11 -4 17 -11 14 -17 -4 -6 -9 -7
-13 0 -3 5 -14 8 -23 7 -18 -3 -15 17 6 44 9 12 7 13 -7 8 -11 -4 -16 -3 -12
3 8 13 22 13 30 1z m-121 -79 c-5 -6 -53 32 -59 47 -3 7 10 0 28 -15 19 -16
33 -31 31 -32z m-4 48 c0 -5 -2 -10 -4 -10 -3 0 -8 5 -11 10 -3 6 -1 10 4 10
6 0 11 -4 11 -10z m58 -15 c-3 -3 -9 2 -12 12 -6 14 -5 15 5 6 7 -7 10 -15 7
-18z m-1248 -5 c0 -5 -2 -10 -4 -10 -3 0 -8 5 -11 10 -3 6 -1 10 4 10 6 0 11
-4 11 -10z m1015 -30 c3 -5 1 -10 -4 -10 -6 0 -11 5 -11 10 0 6 2 10 4 10 3 0
8 -4 11 -10z m156 -17 c13 -16 12 -17 -3 -4 -10 7 -18 15 -18 17 0 8 8 3 21
-13z m-126 -33 c10 -11 16 -20 13 -20 -3 0 -13 9 -23 20 -10 11 -16 20 -13 20
3 0 13 -9 23 -20z m860 10 c3 -5 2 -10 -4 -10 -5 0 -13 5 -16 10 -3 6 -2 10 4
10 5 0 13 -4 16 -10z m-1040 -20 c10 -11 16 -20 13 -20 -3 0 -13 9 -23 20 -10
11 -16 20 -13 20 3 0 13 -9 23 -20z m59 -6 c7 -19 2 -18 -19 6 -16 17 -16 20
-3 15 9 -4 19 -13 22 -21z m1016 17 c0 -6 -4 -13 -10 -16 -5 -3 -10 1 -10 9 0
9 5 16 10 16 6 0 10 -4 10 -9z m-938 -13 c3 -7 13 -13 23 -13 28 0 28 -20 1
-33 -19 -8 -27 -8 -32 0 -4 7 -2 14 5 16 9 3 8 9 -5 23 -9 10 -12 19 -6 19 6
0 12 -6 14 -12z m-172 -13 c7 -9 8 -15 2 -15 -5 0 -12 7 -16 15 -3 8 -4 15 -2
15 2 0 9 -7 16 -15z m1020 -10 c14 -19 14 -19 -2 -6 -10 7 -18 18 -18 24 0 6
1 8 3 6 1 -2 9 -13 17 -24z m-760 -3 c0 -5 -7 -9 -15 -9 -8 0 -15 4 -15 9 0 4
7 8 15 8 8 0 15 -4 15 -8z m670 -12 c9 -17 8 -20 -9 -17 -29 4 -38 17 -21 27
19 12 18 13 30 -10z m64 4 c9 -24 7 -27 -9 -10 -17 17 -19 26 -6 26 5 0 12 -7
15 -16z m-114 -4 c0 -5 -2 -10 -4 -10 -3 0 -8 5 -11 10 -3 6 -1 10 4 10 6 0
11 -4 11 -10z m-860 -10 c0 -5 -2 -10 -4 -10 -3 0 -8 5 -11 10 -3 6 -1 10 4
10 6 0 11 -4 11 -10z m-232 -35 c-3 -3 -9 2 -12 12 -6 14 -5 15 5 6 7 -7 10
-15 7 -18z m219 -1 c20 -19 22 -24 7 -16 -21 11 -51 42 -41 42 3 0 19 -12 34
-26z m48 16 c3 -6 -1 -7 -9 -4 -18 7 -21 14 -7 14 6 0 13 -4 16 -10z m776 -5
c-42 -19 -52 -19 -27 0 11 8 29 15 40 15 16 -1 12 -5 -13 -15z m214 -5 c26
-29 14 -33 -14 -4 -13 13 -19 24 -14 24 6 0 18 -9 28 -20z m-1065 -25 c14 -8
21 -14 15 -14 -5 0 -21 6 -35 14 -14 8 -20 14 -15 14 6 0 21 -6 35 -14z m805
-5 c10 -11 16 -20 13 -20 -3 0 -13 9 -23 20 -10 11 -16 20 -13 20 3 0 13 -9
23 -20z m90 10 c3 -5 2 -10 -4 -10 -5 0 -13 5 -16 10 -3 6 -2 10 4 10 5 0 13
-4 16 -10z m145 -5 c16 -9 19 -14 9 -15 -8 0 -24 7 -35 15 -24 18 -7 19 26 0z
m-1226 -24 c-2 -3 -12 3 -22 13 -16 17 -16 18 5 5 12 -7 20 -15 17 -18z m1046
19 c0 -5 -7 -7 -15 -4 -8 4 -15 8 -15 10 0 2 7 4 15 4 8 0 15 -4 15 -10z m145
-10 c3 -6 -1 -7 -9 -4 -18 7 -21 14 -7 14 6 0 13 -4 16 -10z m-255 -38 c0 -1
-9 2 -20 8 -11 6 -20 15 -20 20 0 6 9 2 20 -7 11 -10 20 -19 20 -21z m270 -4
c0 -4 -5 -10 -12 -14 -6 -4 -8 -3 -4 4 3 6 2 13 -4 17 -5 3 -10 1 -10 -6 0
-12 -15 -3 -15 9 0 4 -4 13 -8 19 -5 7 5 5 22 -5 17 -9 31 -20 31 -24z m-1229
15 c13 -16 12 -17 -3 -4 -10 7 -18 15 -18 17 0 8 8 3 21 -13z m874 -3 c3 -5 1
-10 -4 -10 -6 0 -11 5 -11 10 0 6 2 10 4 10 3 0 8 -4 11 -10z m380 -20 c3 -5
1 -10 -4 -10 -6 0 -11 5 -11 10 0 6 2 10 4 10 3 0 8 -4 11 -10z m-445 -10 c0
-5 -7 -7 -15 -4 -8 4 -15 8 -15 10 0 2 7 4 15 4 8 0 15 -4 15 -10z m-40 -20
c0 -5 -7 -7 -15 -4 -8 4 -12 10 -9 15 6 11 24 2 24 -11z m441 -7 c13 -16 12
-17 -3 -4 -10 7 -18 15 -18 17 0 8 8 3 21 -13z m-487 -9 c3 -8 2 -12 -4 -9 -6
3 -10 10 -10 16 0 14 7 11 14 -7z m-296 -110 c-4 -3 -12 5 -18 18 -12 22 -12
22 6 6 10 -10 15 -20 12 -24z m642 2 c0 -3 -4 -8 -10 -11 -5 -3 -10 -1 -10 4
0 6 5 11 10 11 6 0 10 -2 10 -4z m-763 -21 c0 -11 -4 -12 -14 -4 -7 6 -13 13
-13 15 0 2 6 4 13 4 8 0 14 -7 14 -15z m-133 -41 c5 -14 4 -15 -9 -4 -17 14
-19 20 -6 20 5 0 12 -7 15 -16z m-219 -132 c-3 -3 -11 0 -18 7 -9 10 -8 11 6
5 10 -3 15 -9 12 -12z"/>
<path d="M8145 8410 c-3 -6 1 -7 9 -4 18 7 21 14 7 14 -6 0 -13 -4 -16 -10z"/>
<path d="M8040 8392 c0 -9 43 -42 55 -42 15 0 2 18 -25 33 -16 10 -30 14 -30
9z"/>
<path d="M7957 8353 c5 -12 1 -14 -15 -8 -12 3 -22 2 -22 -3 0 -15 37 -21 49
-9 15 15 14 24 -3 30 -11 4 -13 1 -9 -10z"/>
<path d="M8117 8349 c7 -7 15 -10 18 -7 3 3 -2 9 -12 12 -14 6 -15 5 -6 -5z"/>
<path d="M7880 8326 c0 -9 5 -16 10 -16 6 0 10 4 10 9 0 6 -4 13 -10 16 -5 3
-10 -1 -10 -9z"/>
<path d="M8104 8325 c11 -8 22 -12 25 -9 6 6 -19 24 -34 24 -5 -1 -1 -7 9 -15z"/>
<path d="M7840 8316 c0 -2 7 -9 15 -16 13 -11 14 -10 9 4 -5 14 -24 23 -24 12z"/>
<path d="M8075 8310 c-4 -6 3 -10 14 -10 25 0 27 6 6 13 -8 4 -17 2 -20 -3z"/>
<path d="M7745 8301 c-3 -5 -2 -12 3 -15 5 -3 9 1 9 9 0 17 -3 19 -12 6z"/>
<path d="M7830 8293 c5 -2 8 -8 5 -13 -3 -4 2 -13 9 -19 10 -8 16 -9 21 -1 3
5 -1 10 -9 10 -9 0 -15 5 -13 11 1 6 -4 13 -11 15 -7 1 -8 0 -2 -3z"/>
<path d="M7880 8281 c0 -6 4 -13 10 -16 6 -3 7 1 4 9 -7 18 -14 21 -14 7z"/>
<path d="M7763 8252 c-9 -14 -14 -15 -32 -4 -28 16 -36 15 -21 -3 6 -8 9 -19
5 -25 -9 -15 13 -40 37 -40 10 0 30 -11 44 -25 24 -24 62 -36 49 -15 -3 6 -1
10 4 10 6 0 11 -5 11 -11 0 -5 5 -7 10 -4 6 4 24 0 40 -9 17 -8 30 -10 30 -5
0 5 5 9 10 9 12 0 13 -10 1 -29 -8 -12 -12 -12 -25 -2 -9 8 -16 10 -16 6 0 -5
-8 -1 -17 8 -15 13 -21 13 -35 3 -10 -7 -18 -21 -18 -30 0 -9 -7 -16 -15 -16
-20 0 -19 -7 5 -32 11 -12 23 -18 27 -13 5 4 2 10 -4 12 -15 5 -18 23 -4 23
16 0 22 -32 9 -48 -11 -13 -10 -14 9 -4 24 13 24 33 1 59 -14 15 -14 20 -3 30
9 8 16 9 20 3 3 -6 1 -10 -6 -10 -7 0 -5 -6 6 -14 12 -9 16 -19 12 -32 -7 -18
-6 -18 8 0 17 22 20 40 6 31 -5 -3 -12 -1 -16 5 -3 5 3 10 14 10 23 0 41 -22
23 -28 -7 -2 -12 -10 -12 -18 0 -8 -7 -17 -15 -20 -8 -4 -15 -11 -15 -17 0 -6
3 -7 7 -4 3 4 12 -1 19 -11 7 -9 16 -14 20 -10 4 4 1 15 -7 24 -11 14 -11 18
1 28 8 6 17 20 18 31 2 11 8 25 14 30 8 7 9 6 4 -2 -4 -8 -1 -13 8 -13 8 0 18
-10 21 -21 5 -16 9 -18 15 -9 4 7 12 10 16 8 5 -3 17 3 27 14 9 10 12 18 6 18
-5 0 -7 4 -4 10 4 6 -1 7 -11 3 -12 -5 -15 -3 -9 6 5 10 2 11 -14 6 -11 -3
-21 -2 -21 3 0 16 31 23 46 11 11 -9 14 -8 14 4 0 8 -7 18 -16 21 -9 3 -14 13
-10 21 3 8 1 17 -4 20 -6 4 -10 -3 -10 -15 0 -12 -4 -19 -10 -15 -6 4 -5 15 2
30 9 21 13 22 25 9 8 -7 11 -19 7 -25 -4 -8 -3 -9 4 -5 7 4 12 1 12 -9 0 -9 5
-13 10 -10 7 4 9 -3 5 -22 l-5 -28 14 30 c13 27 12 32 -6 57 -11 16 -25 28
-31 29 -7 0 -23 2 -37 4 -14 2 -19 1 -12 -1 6 -3 12 -10 12 -15 0 -6 -4 -7
-10 -4 -5 3 -8 0 -5 -7 3 -7 0 -20 -5 -28 -7 -12 -13 -13 -27 -3 -10 6 -17 16
-15 22 3 17 -15 13 -22 -5 -4 -9 -5 -18 -4 -19 2 -1 11 -7 22 -12 16 -9 17
-11 2 -16 -10 -4 -15 -3 -12 1 2 4 -7 9 -22 10 -14 1 -29 6 -32 12 -3 6 -16 4
-32 -4 -24 -13 -28 -12 -46 8 -16 17 -18 23 -8 33 9 7 18 8 27 1 11 -7 11 -11
1 -15 -17 -7 -5 -23 13 -17 24 10 -4 57 -29 50 -12 -3 -28 -1 -35 4 -12 7 -13
11 -1 24 7 9 11 18 9 21 -3 2 -10 -4 -16 -13z m3 -47 c10 -8 14 -15 7 -15 -19
0 -43 11 -43 21 0 13 14 11 36 -6z m264 -52 c0 -2 -10 -7 -22 -12 -26 -10 -47
-3 -27 9 12 8 49 10 49 3z m-14 -53 c21 -10 36 -20 32 -21 -5 -1 -11 -2 -15
-3 -5 -1 -14 -5 -21 -10 -10 -6 -12 -3 -10 10 2 11 -2 18 -9 17 -6 -1 -14 4
-17 12 -7 19 -7 19 40 -5z"/>
<path d="M7800 8250 c-8 -5 -12 -12 -9 -15 4 -3 12 1 19 10 14 17 11 19 -10 5z"/>
<path d="M7841 8224 c0 -11 3 -14 6 -6 3 7 2 16 -1 19 -3 4 -6 -2 -5 -13z"/>
<path d="M7892 8221 c13 -22 28 -28 28 -11 0 5 -9 14 -20 20 -19 10 -20 10 -8
-9z"/>
<path d="M7940 8231 c0 -10 30 -24 37 -17 3 2 -5 9 -16 16 -12 6 -21 7 -21 1z"/>
<path d="M7570 8216 c0 -2 7 -9 15 -16 13 -11 14 -10 9 4 -5 14 -24 23 -24 12z"/>
<path d="M7867 8196 c-3 -8 2 -16 14 -19 22 -6 25 6 5 22 -10 9 -15 8 -19 -3z"/>
<path d="M7960 8191 c0 -5 5 -13 10 -16 6 -3 10 -2 10 4 0 5 -4 13 -10 16 -5
3 -10 2 -10 -4z"/>
<path d="M7567 8173 c4 -11 3 -14 -5 -9 -16 10 -15 1 1 -12 10 -8 13 -5 15 14
1 13 -3 24 -8 24 -5 0 -6 -7 -3 -17z"/>
<path d="M7682 8171 c8 -13 16 -17 24 -11 6 6 15 6 19 2 5 -4 5 -2 1 5 -4 7
-13 10 -21 6 -8 -3 -15 0 -15 6 0 6 -5 11 -10 11 -6 0 -5 -8 2 -19z"/>
<path d="M7595 8170 c3 -5 11 -10 16 -10 6 0 7 5 4 10 -3 6 -11 10 -16 10 -6
0 -7 -4 -4 -10z"/>
<path d="M7656 8159 c3 -10 0 -20 -7 -25 -8 -4 -10 -3 -5 4 5 8 2 10 -8 6 -19
-7 -21 -24 -3 -25 6 -1 17 -2 22 -4 6 -1 15 -3 20 -4 6 -1 3 -6 -5 -11 -12 -7
-12 -12 -2 -22 9 -9 12 -9 12 5 0 27 1 31 12 45 7 8 7 12 -2 12 -7 0 -19 8
-26 18 -12 14 -13 15 -8 1z"/>
<path d="M7514 8148 c-4 -6 -3 -8 3 -5 5 4 20 -3 32 -15 18 -16 20 -22 9 -29
-9 -6 -9 -9 -1 -9 6 0 15 5 18 10 4 7 13 7 25 0 16 -8 18 -8 14 5 -3 8 -10 12
-15 9 -5 -3 -9 1 -9 8 0 11 -2 10 -9 0 -7 -11 -9 -11 -14 2 -9 22 -44 39 -53
24z"/>
<path d="M7720 8140 c0 -5 5 -10 11 -10 5 0 7 5 4 10 -3 6 -8 10 -11 10 -2 0
-4 -4 -4 -10z"/>
<path d="M7270 8126 c0 -2 8 -10 18 -17 15 -13 16 -12 3 4 -13 16 -21 21 -21
13z"/>
<path d="M7520 8111 c0 -6 4 -13 10 -16 6 -3 7 1 4 9 -7 18 -14 21 -14 7z"/>
<path d="M7810 8100 c0 -5 5 -10 10 -10 6 0 10 5 10 10 0 6 -4 10 -10 10 -5 0
-10 -4 -10 -10z"/>
<path d="M7320 8091 c0 -5 7 -15 17 -22 15 -13 15 -12 4 9 -12 23 -21 28 -21
13z"/>
<path d="M7187 8069 c7 -7 15 -10 18 -7 3 3 -2 9 -12 12 -14 6 -15 5 -6 -5z"/>
<path d="M7555 8070 c-3 -6 1 -7 9 -4 11 4 19 -2 26 -20 8 -22 24 -31 51 -28
3 1 11 -17 18 -39 7 -22 16 -37 21 -34 10 6 1 45 -10 45 -4 0 -10 9 -13 20 -3
11 -9 20 -14 19 -20 -3 -46 2 -40 8 8 7 -21 43 -34 43 -4 0 -11 -4 -14 -10z"/>
<path d="M7620 8062 c0 -12 19 -26 26 -19 2 2 -2 10 -11 17 -9 8 -15 8 -15 2z"/>
<path d="M7652 8062 c26 -54 32 -61 40 -50 6 10 10 10 18 -2 5 -8 10 -10 10
-5 0 18 -17 36 -31 33 -8 -2 -13 2 -12 9 1 6 -4 14 -13 17 -8 3 -13 2 -12 -2z"/>
<path d="M7700 8065 c0 -2 10 -10 23 -16 20 -11 21 -11 8 4 -13 16 -31 23 -31
12z"/>
<path d="M7076 8051 c3 -3 11 -6 17 -6 7 -1 11 -7 9 -15 -2 -7 3 -17 10 -21
25 -17 29 -9 9 19 -11 16 -27 29 -35 29 -9 0 -13 -3 -10 -6z"/>
<path d="M7380 8042 c0 -5 7 -9 15 -9 8 0 15 4 15 9 0 4 -7 8 -15 8 -8 0 -15
-4 -15 -8z"/>
<path d="M7530 8041 c0 -5 7 -15 17 -22 15 -13 15 -12 4 9 -12 23 -21 28 -21
13z"/>
<path d="M7566 8025 c4 -8 11 -15 16 -15 6 0 5 6 -2 15 -7 8 -14 15 -16 15 -2
0 -1 -7 2 -15z"/>
<path d="M7736 8021 c-4 -7 -5 -15 -2 -18 9 -9 19 4 14 18 -4 11 -6 11 -12 0z"/>
<path d="M7375 8010 c3 -5 11 -10 16 -10 6 0 7 5 4 10 -3 6 -11 10 -16 10 -6
0 -7 -4 -4 -10z"/>
<path d="M7601 8001 c-8 -5 -9 -11 -3 -15 5 -3 12 1 16 9 6 17 6 18 -13 6z"/>
<path d="M7865 7990 c-3 -4 2 -11 11 -14 8 -3 12 -10 9 -16 -3 -6 1 -7 9 -4 9
3 16 12 16 19 0 15 -37 27 -45 15z"/>
<path d="M6965 7970 c-4 -6 -15 -8 -26 -5 -23 8 -26 -13 -3 -22 16 -6 52 22
42 32 -3 4 -9 1 -13 -5z"/>
<path d="M7420 7972 c0 -17 21 -25 31 -13 5 6 6 9 3 6 -4 -3 -13 0 -21 6 -9 8
-13 8 -13 1z"/>
<path d="M7670 7920 c0 -5 5 -10 10 -10 6 0 10 5 10 10 0 6 -4 10 -10 10 -5 0
-10 -4 -10 -10z"/>
<path d="M6685 7910 c3 -5 10 -10 16 -10 5 0 9 5 9 10 0 6 -7 10 -16 10 -8 0
-12 -4 -9 -10z"/>
<path d="M7715 7900 c4 -6 11 -8 16 -5 14 9 11 15 -7 15 -8 0 -12 -5 -9 -10z"/>
<path d="M6456 7845 c-3 -8 -1 -15 4 -15 6 0 10 7 10 15 0 8 -2 15 -4 15 -2 0
-6 -7 -10 -15z"/>
<path d="M6490 7795 c0 -8 4 -15 10 -15 5 0 7 7 4 15 -4 8 -8 15 -10 15 -2 0
-4 -7 -4 -15z"/>
<path d="M7245 7740 c3 -5 13 -10 21 -10 8 0 12 5 9 10 -3 6 -13 10 -21 10 -8
0 -12 -4 -9 -10z"/>
<path d="M6900 7545 c-11 -13 -10 -14 4 -9 9 3 16 10 16 15 0 13 -6 11 -20 -6z"/>
<path d="M5370 6944 c0 -2 19 -41 43 -87 l42 -82 6 -220 c3 -121 11 -265 18
-320 13 -110 67 -289 132 -438 22 -51 56 -132 75 -182 20 -49 54 -135 76 -190
22 -55 56 -139 74 -186 19 -47 49 -109 67 -137 l32 -51 83 64 c91 73 93 77 68
175 -7 30 -21 93 -30 140 -28 136 -152 528 -226 715 -89 225 -296 631 -354
695 -12 14 -27 37 -33 51 -10 22 -73 68 -73 53z m152 -431 c-3 -16 -7 -22 -10
-15 -4 13 4 42 11 42 2 0 2 -12 -1 -27z m33 -64 c11 -16 1 -19 -13 -3 -7 8 -8
14 -3 14 5 0 13 -5 16 -11z m-35 -19 c0 -5 -4 -10 -10 -10 -5 0 -10 5 -10 10
0 6 5 10 10 10 6 0 10 -4 10 -10z m51 -33 c-10 -9 -11 -8 -5 6 3 10 9 15 12
12 3 -3 0 -11 -7 -18z m-36 3 c3 -6 -1 -7 -9 -4 -18 7 -21 14 -7 14 6 0 13 -4
16 -10z m159 -156 c3 -8 2 -12 -4 -9 -6 3 -10 10 -10 16 0 14 7 11 14 -7z"/>
<path d="M5569 6893 c72 -118 145 -176 226 -182 177 -13 542 -181 782 -362
171 -128 372 -326 499 -493 100 -131 203 -326 276 -521 49 -132 128 -456 128
-527 0 -5 25 -8 56 -8 30 0 75 -5 100 -11 25 -6 47 -10 49 -7 7 7 -23 249 -40
323 -47 202 -122 419 -190 555 -153 306 -422 620 -748 877 -102 80 -393 233
-527 278 -41 14 -93 31 -116 39 -57 21 -354 76 -447 83 l-79 6 31 -50z"/>
<path d="M7105 6915 c-120 -29 -270 -44 -460 -46 -192 -3 -196 -5 -99 -61 43
-25 102 -57 130 -71 28 -14 65 -38 82 -52 29 -25 34 -25 74 -14 24 7 93 35
153 64 95 45 118 61 173 119 57 61 74 87 55 85 -5 0 -53 -11 -108 -24z"/>
<path d="M3235 6884 c-132 -28 -320 -103 -436 -174 -104 -64 -225 -124 -334
-165 -38 -14 -83 -32 -100 -40 -53 -23 -228 -92 -295 -115 -36 -13 -130 -49
-210 -80 -420 -164 -592 -223 -830 -287 -52 -14 -97 -27 -99 -29 -9 -8 100
-131 153 -171 153 -115 306 -159 526 -150 178 7 375 63 785 222 66 25 149 57
185 70 36 12 101 39 145 60 44 21 159 70 255 110 96 40 229 96 295 124 126 53
185 64 185 34 0 -45 -178 -158 -400 -253 -95 -41 -316 -139 -440 -196 -52 -24
-160 -66 -240 -94 -80 -28 -181 -64 -225 -80 -164 -61 -367 -117 -497 -137
l-47 -8 57 -48 c46 -38 192 -125 212 -126 3 0 12 -2 20 -5 24 -9 103 -28 126
-30 11 -1 25 -6 31 -9 24 -15 199 -20 273 -7 260 43 604 212 871 429 94 75
137 101 169 101 34 0 16 -37 -54 -109 -73 -76 -213 -191 -231 -191 -7 0 -15
-3 -17 -7 -13 -30 -234 -147 -318 -169 -62 -16 -100 -37 -89 -49 3 -3 32 -10
65 -16 80 -15 230 -4 367 28 62 14 122 27 134 30 18 4 25 19 42 92 30 126 122
351 193 469 102 169 297 420 423 546 l115 114 -58 59 c-179 184 -362 264 -592
262 -52 -1 -104 -3 -115 -5z"/>
<path d="M5773 6634 c-11 -28 21 -68 195 -245 94 -97 172 -180 172 -183 0 -4
-12 -29 -26 -57 -30 -59 -30 -59 62 -124 35 -25 68 -54 73 -63 5 -10 7 -112 5
-237 -7 -356 -31 -498 -108 -629 -33 -57 -109 -117 -201 -159 -17 -8 -67 -36
-110 -63 -44 -28 -93 -55 -109 -62 -88 -39 -316 -256 -395 -376 -70 -107 -83
-150 -88 -292 -7 -151 4 -200 67 -332 69 -140 156 -229 291 -294 90 -45 271
-96 277 -80 4 12 66 106 96 145 25 33 25 34 8 51 -11 9 -45 27 -78 39 -182 72
-271 143 -331 263 -32 65 -36 84 -36 147 0 58 6 87 33 152 62 150 122 212 379
385 158 106 223 167 327 305 71 93 93 134 125 230 21 65 23 88 25 330 1 187 6
287 18 357 9 54 16 113 16 132 0 34 -1 35 -57 46 -101 20 -159 39 -176 58 -16
18 -14 21 40 74 32 30 72 60 89 68 l31 14 -66 55 c-36 31 -71 60 -77 66 -25
22 -54 45 -58 45 -2 0 -67 42 -144 93 -221 145 -259 166 -269 141z"/>
<path d="M4281 6545 c-2 -32 56 -208 103 -312 31 -67 56 -125 56 -128 0 -9
150 -335 206 -446 109 -218 257 -460 403 -659 31 -41 79 -107 107 -146 42 -59
79 -104 170 -213 2 -2 14 9 26 25 26 32 34 41 102 102 l48 44 -20 21 c-27 29
-65 108 -155 317 -88 204 -265 581 -327 695 -24 44 -56 105 -71 136 -16 30
-36 62 -46 71 -20 17 -250 174 -408 279 -104 69 -142 108 -175 181 -10 24 -19
39 -19 33z"/>
<path d="M4060 6433 c-194 -184 -264 -267 -396 -468 -225 -343 -339 -681 -376
-1115 -41 -479 142 -1040 465 -1425 90 -108 118 -120 142 -62 7 17 25 43 39
56 14 14 26 32 26 41 0 10 -25 50 -54 91 -121 163 -251 409 -311 587 -76 227
-80 256 -80 607 0 202 4 335 12 382 13 72 81 287 125 398 38 92 160 305 225
390 32 42 67 90 78 107 11 17 39 50 62 72 45 45 57 66 97 171 15 39 32 79 37
90 9 18 9 18 5 -4 -3 -13 0 -64 6 -113 8 -65 7 -114 -1 -177 -6 -47 -16 -171
-22 -276 -6 -104 -14 -209 -18 -232 -6 -33 -5 -43 6 -47 8 -4 65 -6 126 -6 62
0 129 -3 149 -6 34 -6 36 -8 26 -28 -6 -11 -40 -57 -75 -101 -34 -43 -63 -82
-63 -85 0 -3 17 -16 37 -30 21 -14 87 -66 148 -116 127 -105 239 -189 345
-262 41 -28 112 -78 156 -110 45 -33 130 -92 189 -133 l108 -73 18 23 c38 47
21 82 -76 152 -27 20 -59 39 -71 43 -33 10 -251 172 -383 284 -66 57 -147 135
-178 174 -87 106 -92 116 -82 149 5 16 13 42 18 58 13 43 -22 89 -99 130 -76
41 -80 50 -109 241 -12 80 -33 210 -47 288 -13 79 -21 148 -18 154 4 7 2 8 -4
4 -7 -4 -12 -3 -12 3 0 5 -13 29 -29 53 -40 60 -44 80 -30 143 20 91 5 88
-111 -22z"/>
<path d="M5073 6479 c-46 -13 -139 -102 -154 -147 -26 -80 -6 -163 60 -242 52
-63 114 -157 139 -210 11 -25 59 -128 107 -230 93 -198 164 -357 252 -564 30
-71 68 -153 84 -182 l30 -52 77 55 c42 30 96 65 118 76 l42 20 -28 56 c-51
102 -131 284 -205 466 -41 99 -108 261 -151 360 l-77 180 -1 130 c-1 113 -4
135 -23 171 -12 23 -19 44 -16 48 4 3 -1 6 -11 6 -9 0 -15 4 -12 9 4 5 -17 21
-46 35 -55 28 -123 33 -185 15z"/>
<path d="M3861 5725 c-16 -14 -39 -40 -50 -58 l-20 -32 29 -152 c31 -165 72
-319 98 -367 46 -86 47 -80 -22 -130 -73 -52 -146 -129 -170 -181 -10 -19 -24
-68 -32 -108 -27 -124 -4 -245 84 -435 27 -59 59 -132 70 -163 38 -103 163
-393 188 -437 29 -49 52 -66 120 -87 64 -19 68 -19 46 5 -30 33 -97 185 -182
415 -28 77 -62 165 -75 195 -13 30 -33 89 -44 130 -11 41 -30 102 -42 135 -27
78 -30 196 -5 247 26 54 93 115 166 151 58 29 74 32 155 32 209 0 280 -86 477
-580 93 -232 122 -323 139 -436 9 -63 9 -86 -1 -107 -19 -43 55 45 80 94 17
35 19 48 10 92 -17 92 -56 212 -143 442 -47 124 -92 249 -101 278 -44 150
-160 300 -276 355 -71 34 -161 57 -223 57 -46 0 -49 2 -64 38 -45 106 -95 277
-117 404 -28 158 -42 215 -56 223 -4 3 -22 -6 -39 -20z"/>
<path d="M6302 4766 c-17 -24 -59 -66 -93 -92 -34 -27 -76 -61 -93 -75 l-31
-27 60 -7 c86 -10 147 -31 215 -76 105 -71 158 -160 167 -282 7 -94 -9 -169
-59 -270 -37 -75 -56 -97 -214 -252 -178 -174 -330 -354 -383 -454 -45 -86
-71 -191 -71 -294 0 -112 12 -160 67 -277 81 -169 200 -263 403 -319 41 -12
81 -21 90 -21 8 0 32 32 55 74 38 72 39 76 22 94 -10 11 -44 29 -76 41 -171
62 -295 203 -308 349 -7 77 11 182 44 251 29 61 130 176 336 382 74 75 152
163 173 195 21 32 55 80 75 106 114 145 157 358 114 562 -22 103 -57 173 -122
246 -51 57 -154 140 -175 140 -7 0 -31 9 -53 19 -22 10 -56 21 -76 25 -33 6
-37 4 -67 -38z"/>
<path d="M7367 4665 c-83 -23 -160 -68 -223 -130 -98 -97 -141 -206 -132 -337
9 -143 121 -297 266 -366 66 -32 85 -36 176 -40 85 -3 111 -1 166 18 129 43
215 122 277 255 23 49 28 77 31 155 3 56 -1 117 -9 150 -7 30 -12 58 -11 63 1
4 -3 7 -10 7 -6 0 -9 2 -6 5 7 7 -31 53 -87 107 -102 99 -302 150 -438 113z
m209 -214 c49 -22 111 -92 124 -140 37 -134 -42 -274 -167 -297 -48 -9 -135 1
-171 20 -81 42 -126 115 -126 206 0 98 50 178 134 214 49 21 155 20 206 -3z"/>
<path d="M7469 4351 c6 -10 22 -26 36 -35 28 -19 34 -11 8 10 -16 13 -16 13
-1 8 17 -6 54 -54 42 -54 -4 0 0 -8 7 -17 11 -15 10 -14 -9 1 -26 23 -28 15
-5 -22 17 -26 17 -27 -1 -12 -20 16 -66 21 -66 8 0 -4 -10 -4 -22 1 -14 5 -22
15 -20 26 3 12 -1 16 -12 12 -11 -4 -13 -1 -10 11 5 16 4 16 -9 0 -8 -10 -18
-14 -22 -10 -4 4 -2 -3 4 -16 9 -18 9 -22 -1 -20 -20 5 -21 -42 -2 -63 9 -10
35 -24 56 -30 50 -13 104 11 131 59 19 32 19 33 -5 78 -17 35 -33 51 -66 65
-41 17 -42 17 -33 0z"/>
<path d="M7438 4302 c-10 -12 -10 -14 0 -8 6 4 12 2 12 -3 0 -6 4 -10 9 -8 5
1 17 -7 25 -18 l16 -20 16 20 c8 11 21 19 27 17 7 -2 9 0 4 4 -11 12 -47 12
-54 1 -4 -6 -1 -7 7 -2 9 5 11 4 6 -4 -10 -15 -27 -4 -24 16 4 21 -28 25 -44
5z"/>
<path d="M5930 4497 c-19 -11 -70 -47 -112 -80 -63 -48 -75 -62 -68 -75 6 -10
48 -105 94 -212 107 -248 200 -445 215 -454 15 -10 39 7 125 86 l69 63 -50
125 c-28 69 -69 179 -92 245 -65 183 -127 326 -140 324 -3 0 -22 -10 -41 -22z"/>
<path d="M0 2784 c1 -855 3 -1023 15 -1058 8 -23 15 -51 15 -63 0 -17 6 -23
23 -23 32 0 73 -84 64 -129 -6 -28 -4 -31 18 -31 22 0 25 -4 25 -40 0 -33 3
-40 19 -40 21 0 26 -10 36 -77 4 -24 11 -43 16 -43 5 0 9 -9 9 -20 0 -13 7
-20 20 -20 17 0 20 -7 20 -40 0 -33 3 -40 20 -40 13 0 20 -7 20 -20 0 -11 5
-20 10 -20 6 0 10 -9 10 -20 0 -11 5 -20 10 -20 6 0 10 -9 10 -20 0 -13 7 -20
20 -20 16 0 20 -7 20 -35 0 -47 39 -125 62 -125 15 0 18 -9 18 -60 0 -53 2
-60 20 -60 13 0 20 -7 20 -20 0 -13 7 -20 20 -20 13 0 20 -7 20 -20 0 -13 7
-20 20 -20 13 0 20 -7 20 -20 0 -13 7 -20 20 -20 15 0 20 -7 20 -29 0 -63 11
-91 36 -91 23 0 24 -3 24 -70 0 -40 4 -70 10 -70 6 0 10 -13 10 -30 0 -25 4
-30 25 -30 18 0 25 -5 25 -20 0 -11 5 -20 10 -20 6 0 10 -18 10 -40 0 -38 2
-40 30 -40 26 0 30 -4 30 -28 0 -32 29 -72 52 -72 11 0 17 -15 22 -50 l7 -50
203 0 204 0 -2 25 c0 14 -4 25 -7 25 -7 0 -20 47 -25 89 -2 13 -7 27 -12 30
-5 3 -13 25 -17 49 -4 23 -11 42 -16 42 -4 0 -6 7 -3 15 4 8 1 15 -5 15 -6 0
-8 6 -5 14 3 8 1 17 -5 21 -6 3 -11 0 -11 -7 -1 -9 -3 -8 -10 3 -10 16 -9 37
3 55 4 7 0 17 -7 23 -8 7 -18 31 -21 53 -4 23 -20 70 -36 106 -16 36 -27 67
-24 70 2 3 -3 11 -13 19 -9 8 -11 11 -3 7 10 -5 12 -3 5 7 -4 8 -10 23 -11 34
-2 11 -10 25 -17 30 -8 6 -12 23 -11 38 2 15 -1 29 -6 33 -5 3 -9 14 -9 24 0
10 -7 25 -15 33 -8 8 -12 17 -9 19 2 3 -1 18 -7 34 -15 35 -16 40 -18 60 0 9
-6 12 -13 8 -7 -4 -8 -3 -4 4 4 6 1 22 -6 34 -6 13 -13 28 -14 33 -5 19 -27
80 -36 98 -5 10 -6 22 -3 27 4 6 1 10 -4 10 -6 0 -10 3 -9 8 1 4 -3 17 -10 30
-7 12 -10 27 -7 32 3 6 1 10 -5 10 -6 0 -9 4 -5 9 3 5 -2 16 -10 24 -8 9 -15
26 -15 39 0 13 -5 29 -10 34 -6 6 -13 34 -17 62 -3 28 -9 49 -14 47 -9 -6 -23
34 -15 42 3 4 0 13 -7 21 -10 13 -9 14 3 7 9 -5 8 0 -4 13 -11 12 -16 22 -12
22 4 0 0 10 -8 22 -9 12 -16 29 -16 37 0 8 -9 25 -21 37 -11 12 -22 39 -24 60
-2 20 -9 40 -16 45 -7 4 -13 15 -14 26 -1 10 -7 28 -13 40 -15 28 -15 36 1 27
6 -4 4 2 -5 13 -21 23 -24 37 -5 27 6 -4 1 5 -12 19 -21 24 -30 49 -34 100 -1
9 -4 17 -7 17 -3 0 -7 10 -7 22 -1 13 -7 24 -12 26 -5 2 -8 9 -5 16 3 8 -1 20
-8 27 -7 8 -15 23 -16 34 -2 11 -9 26 -14 33 -7 8 -7 12 1 12 8 0 4 12 -9 30
-12 17 -19 30 -16 30 9 0 -25 89 -40 101 -17 14 -19 33 -1 23 6 -4 4 2 -6 13
-9 11 -14 23 -10 26 3 4 1 7 -5 7 -7 0 -12 11 -12 24 0 14 -5 28 -11 31 -6 4
-8 13 -5 21 3 8 1 14 -5 14 -6 0 -9 6 -6 13 2 6 -2 24 -9 38 -7 15 -10 29 -7
33 4 3 0 6 -8 6 -9 0 -15 14 -17 41 -1 23 -12 60 -22 82 -11 22 -20 50 -20 61
0 11 -10 30 -22 43 -14 15 -17 23 -8 23 10 0 8 4 -4 13 -9 7 -16 17 -15 22 6
20 -12 85 -23 85 -6 0 -8 3 -5 7 4 3 1 13 -6 21 -9 13 -9 14 1 8 18 -11 15 4
-9 43 -11 18 -21 46 -22 62 -1 16 -6 29 -10 29 -5 0 -6 4 -2 10 3 5 1 17 -4
27 -19 35 -63 134 -66 151 -2 9 -4 17 -5 17 -1 0 -3 8 -5 17 -2 9 -10 30 -17
46 -8 16 -21 50 -29 75 -7 26 -17 47 -22 47 -5 0 -7 9 -4 20 3 11 1 20 -5 20
-5 0 -7 4 -3 9 3 5 0 13 -6 16 -5 4 -8 13 -5 20 3 8 -2 19 -10 25 -8 7 -14 24
-14 38 0 13 -8 31 -17 38 -17 13 -17 13 0 14 15 0 15 3 5 20 -7 11 -16 20 -21
20 -4 0 -7 -457 -7 -1016z"/>
<path d="M4933 3749 c-46 -29 -66 -66 -72 -133 -6 -58 -7 -59 -46 -73 -33 -12
-100 -23 -207 -35 -10 -1 -18 -8 -18 -14 0 -7 -8 -10 -19 -7 -11 3 -21 -2 -24
-11 -4 -9 -11 -16 -17 -16 -6 0 -29 -12 -52 -27 -23 -16 -80 -37 -127 -49
l-85 -21 -46 49 c-56 61 -98 67 -156 23 -76 -58 -104 -179 -56 -244 25 -35 90
-71 127 -71 77 0 141 70 130 145 l-5 40 117 0 c99 1 126 4 165 22 34 15 56 20
75 14 40 -10 62 -3 69 24 8 33 30 50 99 76 33 12 72 34 87 49 27 27 27 27 45
8 29 -32 69 -48 119 -48 40 0 51 5 80 35 69 74 67 163 -5 228 -36 33 -93 57
-131 57 -8 0 -29 -9 -47 -21z"/>
<path d="M6520 3455 c-47 -51 -85 -101 -85 -111 0 -14 16 -22 68 -35 37 -9 92
-29 121 -43 67 -33 149 -119 184 -193 24 -51 27 -70 27 -159 0 -100 -1 -102
-45 -189 -43 -85 -88 -148 -174 -246 -57 -64 -193 -260 -216 -312 -30 -67 -45
-214 -31 -300 30 -188 136 -291 356 -345 110 -27 155 -33 155 -20 0 20 -68 75
-142 116 -86 47 -135 96 -174 172 -26 50 -29 65 -29 155 0 127 8 144 157 332
144 182 187 238 217 282 13 20 41 59 62 87 71 93 110 217 111 354 1 159 -52
263 -209 410 -70 66 -81 73 -168 108 -98 38 -91 41 -185 -63z"/>
<path d="M6343 3264 c-50 -34 -133 -115 -133 -130 0 -7 25 -64 56 -126 30 -62
81 -171 113 -243 87 -192 123 -265 132 -265 4 0 35 33 68 74 44 54 61 83 61
104 0 34 -45 168 -127 377 -58 150 -94 219 -117 228 -8 3 -32 -6 -53 -19z"/>
<path d="M4320 3165 c0 -19 -63 -51 -120 -60 l-45 -8 56 -51 c85 -79 213 -160
397 -250 211 -105 268 -127 444 -175 193 -52 403 -79 571 -73 l47 2 -2 51 c-2
40 -7 55 -27 70 -13 10 -19 19 -14 19 5 0 14 -5 21 -12 7 -7 12 -8 12 -2 0 6
-12 17 -27 24 -16 8 -35 20 -44 27 -9 8 -30 15 -47 17 -16 3 -38 8 -49 14 -10
5 -34 8 -53 7 -19 -1 -44 3 -55 8 -25 13 -81 28 -120 33 -100 11 -312 77 -429
133 -69 33 -139 62 -156 64 -16 3 -62 22 -102 43 -40 20 -85 44 -101 51 -15 8
-53 30 -84 49 -63 38 -73 41 -73 19z"/>
<path d="M6868 2337 c-23 -28 -62 -78 -87 -112 -24 -33 -61 -79 -82 -102 -22
-24 -39 -49 -39 -57 0 -17 32 -89 138 -306 44 -91 83 -176 87 -190 13 -42 263
-535 285 -561 l20 -24 -9 25 c-6 14 -35 113 -66 220 -31 107 -68 217 -82 244
-30 59 -60 142 -74 206 -19 87 -172 466 -194 482 -21 16 57 7 109 -12 61 -23
128 -88 153 -148 23 -56 28 -176 9 -255 -18 -76 -21 -133 -7 -141 19 -12 96
59 123 114 68 138 62 366 -13 471 -10 15 -19 32 -19 38 0 6 -4 11 -9 11 -5 0
-12 8 -16 18 -7 22 -87 83 -142 109 l-42 21 -43 -51z"/>
<path d="M10085 1254 c-66 -25 -158 -60 -205 -78 -47 -18 -139 -53 -205 -76
-66 -23 -147 -54 -180 -68 -33 -14 -91 -36 -130 -48 -38 -13 -155 -54 -260
-93 -104 -39 -195 -71 -201 -71 -5 0 -28 -9 -50 -19 -21 -10 -75 -30 -119 -44
-44 -14 -102 -35 -130 -48 -46 -20 -170 -66 -345 -125 -41 -14 -79 -30 -85
-34 -5 -4 -50 -21 -100 -38 -49 -17 -108 -38 -130 -46 -232 -86 -387 -145
-410 -156 -23 -10 -87 -30 -97 -30 -5 0 -33 -11 -63 -25 -30 -13 -55 -21 -55
-18 0 3 -7 0 -15 -7 -9 -7 -18 -10 -21 -7 -4 3 -12 0 -19 -7 -7 -7 -39 -21
-72 -30 -32 -10 -67 -22 -78 -26 -33 -15 -127 -51 -175 -67 -25 -8 -63 -23
-86 -34 -22 -10 -43 -19 -47 -19 -4 0 -21 -9 -39 -20 l-33 -20 1753 0 1752 0
0 650 c0 613 -1 650 -17 650 -10 -1 -72 -21 -138 -46z"/>
<path d="M2930 266 c0 -2 7 -7 16 -10 8 -3 12 -2 9 4 -6 10 -25 14 -25 6z"/>
</g>
</svg>
